<?xml version="1.0" encoding="utf-8"?>
<svg version="1.1" xmlns="http://www.w3.org/2000/svg" xmlns:xlink="http://www.w3.org/1999/xlink" x="0px" y="0px"
	 viewBox="0 0 256 256" style="enable-background:new 0 0 256 256;" xml:space="preserve">
<style type="text/css">
	.st0{fill:#256B5F;}
	.st1{fill:#FFFFFF;}
	.st2{opacity:0.4;fill:#256B5F;}
	.st3{opacity:0.4;fill:#FFFFFF;}
	.st4{opacity:0.4;}
</style>
<g>
	<g>
		<rect y="0" class="st0" width="256" height="256"/>
		<polygon class="st1" points="61.9,124.6 97.1,79.5 132.3,124.6 		"/>
		<polygon class="st1" points="95.6,124.6 144.8,61.5 194.1,124.6 		"/>
		<polygon class="st2" points="140.9,117.8 120.9,92.1 113.9,101.1 132.3,124.6 146.2,124.6 		"/>
		<path class="st3" d="M200.2,34.4H55.8c-8.8,0-15.9,7.1-15.9,15.9v84.5c0,8.8,7.1,15.9,15.9,15.9h144.5c8.8,0,15.9-7.1,15.9-15.9v0
			V50.3C216.2,41.5,209,34.4,200.2,34.4z M205.2,134.8c0,2.7-2.2,4.9-4.9,4.9H55.8c-2.7,0-4.9-2.2-4.9-4.9V50.3
			c0-2.7,2.2-4.9,4.9-4.9h144.5c2.7,0,4.9,2.2,4.9,4.9L205.2,134.8L205.2,134.8L205.2,134.8z"/>
	</g>
	<g>
		<path class="st1" d="M74.5,182.5h-2.1c0-1.5-0.2-2.7-0.6-3.5c-0.4-0.8-1.1-1.4-2.1-1.8c-0.9-0.3-2.3-0.5-4.1-0.5
			c-3.3,0-5.3,0-6,0.1v29.4c0,1.5,0.6,2.4,1.8,2.7c0.6,0.2,1.6,0.3,3.1,0.3v2.1c-1.1,0-2.1,0-2.8-0.1l-4.6-0.1l-4.6,0.1
			c-0.7,0-1.6,0.1-2.7,0.1v-2.1c1,0,1.8,0,2.2-0.1c0.4-0.1,0.9-0.2,1.2-0.3c1-0.4,1.5-1.3,1.5-2.6V177c-0.7-0.1-2.6-0.1-5.9-0.1
			c-1.8,0-3.2,0.2-4.1,0.5c-1,0.3-1.7,0.9-2.1,1.8c-0.4,0.8-0.6,1.9-0.6,3.5h-2.1c0.1-1.8,0.1-3.3,0.1-4.4c0-1.1,0-2.6-0.1-4.4
			c4.6,0.1,10.4,0.2,17.3,0.2c6.9,0,12.7-0.1,17.3-0.2c-0.1,1.8-0.1,3.3-0.1,4.4C74.4,179.2,74.4,180.7,74.5,182.5z"/>
	</g>
	<path class="st1" d="M196.6,178.6v8.6l11.4-11.4l-11.4-11.4v8.6c-12.6,0-22.9,10.2-22.9,22.8v0.1c-0.1,4.3,1.2,8.5,3.5,12.1
		l4.3-4.3c-1.4-2.5-2-5.2-2-8C179.5,186.3,187.1,178.7,196.6,178.6z M212.7,182.6l-4.3,4.3c1.3,2.5,2,5.2,2,8
		c0,9.4-7.6,17.1-17.1,17.1l0,0v-8.6l-11.4,11.4l11.4,11.4v-8.6c12.6,0,22.9-10.2,22.9-22.8v-0.1
		C216.2,190.4,214.9,186.2,212.7,182.6z"/>
	<g>
		<path class="st1" d="M177.6,219c-0.5-0.5-0.9-1.1-1.2-1.8H39.8v8.9h145L177.6,219z"/>
	</g>
	<g class="st4">
		<path class="st1" d="M70.4,211.5h101.9c-0.1-0.1-0.1-0.2-0.2-0.3c-2.9-4.7-4.4-10-4.4-15.4v0c0-4.8,1.2-9.3,3.2-13.3H80.5l0.2,6
			h-6.2h-2.1h-6.8v14.9h4.9v6V211.5z"/>
	</g>
</g>
</svg>
